<svg width="499" height="300" xmlns="http://www.w3.org/2000/svg" xmlns:xlink="http://www.w3.org/1999/xlink" version="1.1" baseProfile="full" viewBox="0 0 499 300">
<rect width="499" height="300" x="0" y="0" id="0" fill="none" fill-opacity="1"></rect>
<polyline points="257.1 127.7 271 122 286 122" fill="none" stroke="#5470c6"></polyline>
<polyline points="224.9 224.8 230.6 237.6 245.6 237.6" fill="none" stroke="#91cc75"></polyline>
<polyline points="194 235.3 195.7 251.7 210.7 251.7" fill="none" stroke="#fac858"></polyline>
<polyline points="167.6 234 164.3 289.8 149.3 289.8" fill="none" stroke="#ee6666"></polyline>
<polyline points="144.9 225 142 275.7 127 275.7" fill="none" stroke="#73c0de"></polyline>
<polyline points="128 211.6 128 261.6 113.7 261.6" fill="none" stroke="#3ba272"></polyline>
<polyline points="116.7 196.6 116.7 247.5 104.1 247.5" fill="none" stroke="#fc8452"></polyline>
<polyline points="109.5 179.8 109.5 233.4 96.8 233.4" fill="none" stroke="#9a60b4"></polyline>
<polyline points="106.4 163 106.2 219.3 91.2 219.3" fill="none" stroke="#ea7ccc"></polyline>
<polyline points="107 147 99.1 205.2 87.1 205.2" fill="none" stroke="#5470c6"></polyline>
<polyline points="110.4 132.4 90.5 191.1 84.1 191.1" fill="none" stroke="#91cc75"></polyline>
<polyline points="116.1 119.6 84.2 177 82.2 177" fill="none" stroke="#fac858"></polyline>
<polyline points="123.4 108.6 81.3 162.9 81.3 162.9" fill="none" stroke="#ee6666"></polyline>
<polyline points="131.9 99.6 81.7 148.8 81.7 148.8" fill="none" stroke="#73c0de"></polyline>
<polyline points="140.3 92.9 84 134.7 84 134.7" fill="none" stroke="#3ba272"></polyline>
<polyline points="148.2 88.1 88.8 120.6 88.8 120.6" fill="none" stroke="#fc8452"></polyline>
<polyline points="156.4 84.4 98.9 106.5 96.2 106.5" fill="none" stroke="#9a60b4"></polyline>
<polyline points="164.7 81.7 122.4 92.4 107.4 92.4" fill="none" stroke="#ea7ccc"></polyline>
<polyline points="172.8 80 139.6 78.3 124.6 78.3" fill="none" stroke="#5470c6"></polyline>
<polyline points="180.7 79.2 180 64.2 165 64.2" fill="none" stroke="#91cc75"></polyline>
<path d="M184.63 79.125A78.375 78.375 0 0 1 239.7368 213.2304L184.63 157.5Z" fill="#5470c6"></path>
<path d="M239.7368 213.2304A78.375 78.375 0 0 1 207.6721 232.4113L184.63 157.5Z" fill="#91cc75"></path>
<path d="M207.6721 232.4113A78.375 78.375 0 0 1 179.9552 235.7355L184.63 157.5Z" fill="rgb(250,200,88)"></path>
<path d="M179.9552 235.7355A78.375 78.375 0 0 1 155.6585 230.3237L184.63 157.5Z" fill="rgb(238,102,102)"></path>
<path d="M155.6585 230.3237A78.375 78.375 0 0 1 134.9928 218.153L184.63 157.5Z" fill="rgb(115,192,222)"></path>
<path d="M134.9928 218.153A78.375 78.375 0 0 1 121.7823 204.3274L184.63 157.5Z" fill="rgb(59,162,114)"></path>
<path d="M121.7823 204.3274A78.375 78.375 0 0 1 112.5517 188.2792L184.63 157.5Z" fill="#fc8452"></path>
<path d="M112.5517 188.2792A78.375 78.375 0 0 1 107.4472 171.1181L184.63 157.5Z" fill="#9a60b4"></path>
<path d="M107.4472 171.1181A78.375 78.375 0 0 1 106.3023 154.7784L184.63 157.5Z" fill="#ea7ccc"></path>
<path d="M106.3023 154.7784A78.375 78.375 0 0 1 108.3969 139.3025L184.63 157.5Z" fill="#5470c6"></path>
<path d="M108.3969 139.3025A78.375 78.375 0 0 1 113.0111 125.6664L184.63 157.5Z" fill="#91cc75"></path>
<path d="M113.0111 125.6664A78.375 78.375 0 0 1 119.6104 113.7383L184.63 157.5Z" fill="#fac858"></path>
<path d="M119.6104 113.7383A78.375 78.375 0 0 1 127.5422 103.8006L184.63 157.5Z" fill="#ee6666"></path>
<path d="M127.5422 103.8006A78.375 78.375 0 0 1 136.4911 95.6511L184.63 157.5Z" fill="#73c0de"></path>
<path d="M136.4911 95.6511A78.375 78.375 0 0 1 144.1985 90.3588L184.63 157.5Z" fill="#3ba272"></path>
<path d="M144.1985 90.3588A78.375 78.375 0 0 1 152.3416 86.085L184.63 157.5Z" fill="#fc8452"></path>
<path d="M152.3416 86.085A78.375 78.375 0 0 1 160.637 82.8878L184.63 157.5Z" fill="#9a60b4"></path>
<path d="M160.637 82.8878A78.375 78.375 0 0 1 168.7902 80.7423L184.63 157.5Z" fill="#ea7ccc"></path>
<path d="M168.7902 80.7423A78.375 78.375 0 0 1 176.8215 79.5149L184.63 157.5Z" fill="#5470c6"></path>
<path d="M176.8215 79.5149A78.375 78.375 0 0 1 184.63 79.125L184.63 157.5Z" fill="#91cc75"></path>
<text dominant-baseline="central" text-anchor="start" style="font-size:12px;font-family:sans-serif;" transform="translate(290.9974 122.0097)" fill="#333" stroke="rgb(255,255,255)" stroke-width="2" paint-order="stroke" stroke-miterlimit="2">JN.1(37.59%)</text>
<text dominant-baseline="central" text-anchor="start" style="font-size:12px;font-family:sans-serif;" transform="translate(250.6388 237.6322)" fill="#333" stroke="rgb(255,255,255)" stroke-width="2" paint-order="stroke" stroke-miterlimit="2">JN.1.4(7.66%)</text>
<text dominant-baseline="central" text-anchor="start" style="font-size:12px;font-family:sans-serif;" transform="translate(215.7491 251.7322)" fill="#333" stroke="rgb(255,255,255)" stroke-width="2" paint-order="stroke" stroke-miterlimit="2">BA.2.86.1(5.7%)</text>
<text dominant-baseline="central" text-anchor="end" style="font-size:12px;font-family:sans-serif;" transform="translate(144.3295 289.8412)" fill="#333" stroke="rgb(255,255,255)" stroke-width="2" paint-order="stroke" stroke-miterlimit="2">JN.1.1(5.08%)</text>
<text dominant-baseline="central" text-anchor="end" style="font-size:12px;font-family:sans-serif;" transform="translate(121.9868 275.7412)" fill="#333" stroke="rgb(255,255,255)" stroke-width="2" paint-order="stroke" stroke-miterlimit="2">EG.5.1.1(4.89%)</text>
<text dominant-baseline="central" text-anchor="end" style="font-size:12px;font-family:sans-serif;" transform="translate(108.6691 261.6412)" fill="#333" stroke="rgb(255,255,255)" stroke-width="2" paint-order="stroke" stroke-miterlimit="2">HK.3(3.89%)</text>
<text dominant-baseline="central" text-anchor="end" style="font-size:12px;font-family:sans-serif;" transform="translate(99.0667 247.5412)" fill="#333" stroke="rgb(255,255,255)" stroke-width="2" paint-order="stroke" stroke-miterlimit="2">JG.3(3.77%)</text>
<text dominant-baseline="central" text-anchor="end" style="font-size:12px;font-family:sans-serif;" transform="translate(91.7923 233.4412)" fill="#333" stroke="rgb(255,255,255)" stroke-width="2" paint-order="stroke" stroke-miterlimit="2">HV.1(3.64%)</text>
<text dominant-baseline="central" text-anchor="end" style="font-size:12px;font-family:sans-serif;" transform="translate(86.2343 219.3412)" fill="#333" stroke="rgb(255,255,255)" stroke-width="2" paint-order="stroke" stroke-miterlimit="2">EG.5.1.3(3...</text>
<text dominant-baseline="central" text-anchor="end" style="font-size:12px;font-family:sans-serif;" transform="translate(82.0654 205.2412)" fill="#333" stroke="rgb(255,255,255)" stroke-width="2" paint-order="stroke" stroke-miterlimit="2">XBB.1.16.1...</text>
<text dominant-baseline="central" text-anchor="end" style="font-size:12px;font-family:sans-serif;" transform="translate(79.0935 191.1412)" fill="#333" stroke="rgb(255,255,255)" stroke-width="2" paint-order="stroke" stroke-miterlimit="2">JN.1.7(2....</text>
<text dominant-baseline="central" text-anchor="end" style="font-size:12px;font-family:sans-serif;" transform="translate(77.203 177.0412)" fill="#333" stroke="rgb(255,255,255)" stroke-width="2" paint-order="stroke" stroke-miterlimit="2">JD.1.1(2....</text>
<text dominant-baseline="central" text-anchor="end" style="font-size:12px;font-family:sans-serif;" transform="translate(76.3282 162.9412)" fill="#333" stroke="rgb(255,255,255)" stroke-width="2" paint-order="stroke" stroke-miterlimit="2">JN.3(2.58...</text>
<text dominant-baseline="central" text-anchor="end" style="font-size:12px;font-family:sans-serif;" transform="translate(76.654 148.8412)" fill="#333" stroke="rgb(255,255,255)" stroke-width="2" paint-order="stroke" stroke-miterlimit="2">JN.2(2.46...</text>
<text dominant-baseline="central" text-anchor="end" style="font-size:12px;font-family:sans-serif;" transform="translate(79.0475 134.7412)" fill="#333" stroke="rgb(255,255,255)" stroke-width="2" paint-order="stroke" stroke-miterlimit="2">EG.5.1(1....</text>
<text dominant-baseline="central" text-anchor="end" style="font-size:12px;font-family:sans-serif;" transform="translate(83.7726 120.6412)" fill="#333" stroke="rgb(255,255,255)" stroke-width="2" paint-order="stroke" stroke-miterlimit="2">FL.1.5.1(1...</text>
<text dominant-baseline="central" text-anchor="end" style="font-size:12px;font-family:sans-serif;" transform="translate(91.2498 106.5412)" fill="#333" stroke="rgb(255,255,255)" stroke-width="2" paint-order="stroke" stroke-miterlimit="2">XBB.1.16.11...</text>
<text dominant-baseline="central" text-anchor="end" style="font-size:12px;font-family:sans-serif;" transform="translate(102.391 92.4412)" fill="#333" stroke="rgb(255,255,255)" stroke-width="2" paint-order="stroke" stroke-miterlimit="2">JN.1.32(1.71%)</text>
<text dominant-baseline="central" text-anchor="end" style="font-size:12px;font-family:sans-serif;" transform="translate(119.5866 78.3412)" fill="#333" stroke="rgb(255,255,255)" stroke-width="2" paint-order="stroke" stroke-miterlimit="2">JN.1.4.5(1.65%)</text>
<text dominant-baseline="central" text-anchor="end" style="font-size:12px;font-family:sans-serif;" transform="translate(159.9727 64.2412)" fill="#333" stroke="rgb(255,255,255)" stroke-width="2" paint-order="stroke" stroke-miterlimit="2">GE.1(1.59%)</text>
<path d="M-5 -5l107.3828 0l0 270l-107.3828 0Z" transform="translate(379.25 35)" fill="rgb(0,0,0)" fill-opacity="0" stroke="#ccc" stroke-width="0"></path>
<g clip-path="url(#zr2-c0)">
<path d="M3.5 0L21.5 0A3.5 3.5 0 0 1 25 3.5L25 10.5A3.5 3.5 0 0 1 21.5 14L3.5 14A3.5 3.5 0 0 1 0 10.5L0 3.5A3.5 3.5 0 0 1 3.5 0" transform="translate(379.25 35)" fill="#5470c6"></path>
<text dominant-baseline="central" text-anchor="start" style="font-size:12px;font-family:sans-serif;" x="30" y="7" transform="translate(379.25 35)" fill="#333">JN.1</text>
<path d="M3.5 0L21.5 0A3.5 3.5 0 0 1 25 3.5L25 10.5A3.5 3.5 0 0 1 21.5 14L3.5 14A3.5 3.5 0 0 1 0 10.5L0 3.5A3.5 3.5 0 0 1 3.5 0" transform="translate(379.25 59)" fill="#91cc75"></path>
<text dominant-baseline="central" text-anchor="start" style="font-size:12px;font-family:sans-serif;" x="30" y="7" transform="translate(379.25 59)" fill="#333">JN.1.4</text>
<path d="M3.5 0L21.5 0A3.5 3.5 0 0 1 25 3.5L25 10.5A3.5 3.5 0 0 1 21.5 14L3.5 14A3.5 3.5 0 0 1 0 10.5L0 3.5A3.5 3.5 0 0 1 3.5 0" transform="translate(379.25 83)" fill="#fac858"></path>
<text dominant-baseline="central" text-anchor="start" style="font-size:12px;font-family:sans-serif;" x="30" y="7" transform="translate(379.25 83)" fill="#333">BA.2.86.1</text>
<path d="M3.5 0L21.5 0A3.5 3.5 0 0 1 25 3.5L25 10.5A3.5 3.5 0 0 1 21.5 14L3.5 14A3.5 3.5 0 0 1 0 10.5L0 3.5A3.5 3.5 0 0 1 3.5 0" transform="translate(379.25 107)" fill="#ee6666"></path>
<text dominant-baseline="central" text-anchor="start" style="font-size:12px;font-family:sans-serif;" x="30" y="7" transform="translate(379.25 107)" fill="#333">JN.1.1</text>
<path d="M3.5 0L21.5 0A3.5 3.5 0 0 1 25 3.5L25 10.5A3.5 3.5 0 0 1 21.5 14L3.5 14A3.5 3.5 0 0 1 0 10.5L0 3.5A3.5 3.5 0 0 1 3.5 0" transform="translate(379.25 131)" fill="#73c0de"></path>
<text dominant-baseline="central" text-anchor="start" style="font-size:12px;font-family:sans-serif;" x="30" y="7" transform="translate(379.25 131)" fill="#333">EG.5.1.1</text>
<path d="M3.5 0L21.5 0A3.5 3.5 0 0 1 25 3.5L25 10.5A3.5 3.5 0 0 1 21.5 14L3.5 14A3.5 3.5 0 0 1 0 10.5L0 3.5A3.5 3.5 0 0 1 3.5 0" transform="translate(379.25 155)" fill="#3ba272"></path>
<text dominant-baseline="central" text-anchor="start" style="font-size:12px;font-family:sans-serif;" x="30" y="7" transform="translate(379.25 155)" fill="#333">HK.3</text>
<path d="M3.5 0L21.5 0A3.5 3.5 0 0 1 25 3.5L25 10.5A3.5 3.5 0 0 1 21.5 14L3.5 14A3.5 3.5 0 0 1 0 10.5L0 3.5A3.5 3.5 0 0 1 3.5 0" transform="translate(379.25 179)" fill="#fc8452"></path>
<text dominant-baseline="central" text-anchor="start" style="font-size:12px;font-family:sans-serif;" x="30" y="7" transform="translate(379.25 179)" fill="#333">JG.3</text>
<path d="M3.5 0L21.5 0A3.5 3.5 0 0 1 25 3.5L25 10.5A3.5 3.5 0 0 1 21.5 14L3.5 14A3.5 3.5 0 0 1 0 10.5L0 3.5A3.5 3.5 0 0 1 3.5 0" transform="translate(379.25 203)" fill="#9a60b4"></path>
<text dominant-baseline="central" text-anchor="start" style="font-size:12px;font-family:sans-serif;" x="30" y="7" transform="translate(379.25 203)" fill="#333">HV.1</text>
<path d="M3.5 0L21.5 0A3.5 3.5 0 0 1 25 3.5L25 10.5A3.5 3.5 0 0 1 21.5 14L3.5 14A3.5 3.5 0 0 1 0 10.5L0 3.5A3.5 3.5 0 0 1 3.5 0" transform="translate(379.25 227)" fill="#ea7ccc"></path>
<text dominant-baseline="central" text-anchor="start" style="font-size:12px;font-family:sans-serif;" x="30" y="7" transform="translate(379.25 227)" fill="#333">EG.5.1.3</text>
<path d="M3.5 0L21.5 0A3.5 3.5 0 0 1 25 3.5L25 10.5A3.5 3.5 0 0 1 21.5 14L3.5 14A3.5 3.5 0 0 1 0 10.5L0 3.5A3.5 3.5 0 0 1 3.5 0" transform="translate(379.25 251)" fill="#5470c6"></path>
<text dominant-baseline="central" text-anchor="start" style="font-size:12px;font-family:sans-serif;" x="30" y="7" transform="translate(379.25 251)" fill="#333">XBB.1.16.15</text>
<path d="M3.5 0L21.5 0A3.5 3.5 0 0 1 25 3.5L25 10.5A3.5 3.5 0 0 1 21.5 14L3.5 14A3.5 3.5 0 0 1 0 10.5L0 3.5A3.5 3.5 0 0 1 3.5 0" transform="translate(379.25 275)" fill="#91cc75"></path>
<text dominant-baseline="central" text-anchor="start" style="font-size:12px;font-family:sans-serif;" x="30" y="7" transform="translate(379.25 275)" fill="#333">JN.1.7</text>
<path d="M3.5 0L21.5 0A3.5 3.5 0 0 1 25 3.5L25 10.5A3.5 3.5 0 0 1 21.5 14L3.5 14A3.5 3.5 0 0 1 0 10.5L0 3.5A3.5 3.5 0 0 1 3.5 0" transform="translate(379.25 299)" fill="#fac858"></path>
<text dominant-baseline="central" text-anchor="start" style="font-size:12px;font-family:sans-serif;" x="30" y="7" transform="translate(379.25 299)" fill="#333">JD.1.1</text>
<path d="M3.5 0L21.5 0A3.5 3.5 0 0 1 25 3.5L25 10.5A3.5 3.5 0 0 1 21.5 14L3.5 14A3.5 3.5 0 0 1 0 10.5L0 3.5A3.5 3.5 0 0 1 3.5 0" transform="translate(379.25 323)" fill="#ee6666"></path>
<text dominant-baseline="central" text-anchor="start" style="font-size:12px;font-family:sans-serif;" x="30" y="7" transform="translate(379.25 323)" fill="#333">JN.3</text>
<path d="M3.5 0L21.5 0A3.5 3.5 0 0 1 25 3.5L25 10.5A3.5 3.5 0 0 1 21.5 14L3.5 14A3.5 3.5 0 0 1 0 10.5L0 3.5A3.5 3.5 0 0 1 3.5 0" transform="translate(379.25 347)" fill="#73c0de"></path>
<text dominant-baseline="central" text-anchor="start" style="font-size:12px;font-family:sans-serif;" x="30" y="7" transform="translate(379.25 347)" fill="#333">JN.2</text>
<path d="M3.5 0L21.5 0A3.5 3.5 0 0 1 25 3.5L25 10.5A3.5 3.5 0 0 1 21.5 14L3.5 14A3.5 3.5 0 0 1 0 10.5L0 3.5A3.5 3.5 0 0 1 3.5 0" transform="translate(379.25 371)" fill="#3ba272"></path>
<text dominant-baseline="central" text-anchor="start" style="font-size:12px;font-family:sans-serif;" x="30" y="7" transform="translate(379.25 371)" fill="#333">EG.5.1</text>
<path d="M3.5 0L21.5 0A3.5 3.5 0 0 1 25 3.5L25 10.5A3.5 3.5 0 0 1 21.5 14L3.5 14A3.5 3.5 0 0 1 0 10.5L0 3.5A3.5 3.5 0 0 1 3.5 0" transform="translate(379.25 395)" fill="#fc8452"></path>
<text dominant-baseline="central" text-anchor="start" style="font-size:12px;font-family:sans-serif;" x="30" y="7" transform="translate(379.25 395)" fill="#333">FL.1.5.1</text>
<path d="M3.5 0L21.5 0A3.5 3.5 0 0 1 25 3.5L25 10.5A3.5 3.5 0 0 1 21.5 14L3.5 14A3.5 3.5 0 0 1 0 10.5L0 3.5A3.5 3.5 0 0 1 3.5 0" transform="translate(379.25 419)" fill="#9a60b4"></path>
<text dominant-baseline="central" text-anchor="start" style="font-size:12px;font-family:sans-serif;" x="30" y="7" transform="translate(379.25 419)" fill="#333">XBB.1.16.11</text>
<path d="M3.5 0L21.5 0A3.5 3.5 0 0 1 25 3.5L25 10.5A3.5 3.5 0 0 1 21.5 14L3.5 14A3.5 3.5 0 0 1 0 10.5L0 3.5A3.5 3.5 0 0 1 3.5 0" transform="translate(379.25 443)" fill="#ea7ccc"></path>
<text dominant-baseline="central" text-anchor="start" style="font-size:12px;font-family:sans-serif;" x="30" y="7" transform="translate(379.25 443)" fill="#333">JN.1.32</text>
<path d="M3.5 0L21.5 0A3.5 3.5 0 0 1 25 3.5L25 10.5A3.5 3.5 0 0 1 21.5 14L3.5 14A3.5 3.5 0 0 1 0 10.5L0 3.5A3.5 3.5 0 0 1 3.5 0" transform="translate(379.25 467)" fill="#5470c6"></path>
<text dominant-baseline="central" text-anchor="start" style="font-size:12px;font-family:sans-serif;" x="30" y="7" transform="translate(379.25 467)" fill="#333">JN.1.4.5</text>
<path d="M3.5 0L21.5 0A3.5 3.5 0 0 1 25 3.5L25 10.5A3.5 3.5 0 0 1 21.5 14L3.5 14A3.5 3.5 0 0 1 0 10.5L0 3.5A3.5 3.5 0 0 1 3.5 0" transform="translate(379.25 491)" fill="#91cc75"></path>
<text dominant-baseline="central" text-anchor="start" style="font-size:12px;font-family:sans-serif;" x="30" y="7" transform="translate(379.25 491)" fill="#333">GE.1</text>
</g>
<path d="M-7.5 7.5L7.5 7.5L0 -7.5Z" transform="translate(401.7744 287.5)" fill="#aaa"></path>
<text dominant-baseline="central" text-anchor="middle" style="font: normal normal 12px sans-serif" transform="translate(427.9414 287.5)" fill="#333">1/3</text>
<path d="M-7.5 -7.5L7.5 -7.5L0 7.5Z" transform="translate(454.1084 287.5)" fill="#2f4554"></path>
<defs >
<clipPath id="zr2-c0">
<path d="M0 0l97.3828 0l0 235l-97.3828 0Z" transform="translate(379.25 35)" fill="#000"></path>
</clipPath>
</defs>
</svg>