<svg width="499" height="300" xmlns="http://www.w3.org/2000/svg" xmlns:xlink="http://www.w3.org/1999/xlink" version="1.1" baseProfile="full" viewBox="0 0 499 300">
<rect width="499" height="300" x="0" y="0" id="0" fill="none" fill-opacity="1"></rect>
<polyline points="312.8 130.7 327.7 128.5 342.7 128.5" fill="none" stroke="#5470c6"></polyline>
<polyline points="230.6 201.1 226.2 215.5 211.2 215.5" fill="none" stroke="#91cc75"></polyline>
<polyline points="189.2 161.6 179.9 166.6 164.9 166.6" fill="none" stroke="#fac858"></polyline>
<polyline points="187.4 124.7 175.7 145.7 160.7 145.7" fill="none" stroke="#ee6666"></polyline>
<polyline points="197.4 102.8 175.4 133.6 160.8 133.6" fill="none" stroke="#73c0de"></polyline>
<polyline points="207.5 91.7 173.2 121.5 162.7 121.5" fill="none" stroke="#3ba272"></polyline>
<polyline points="218.4 84 172.7 109.4 166.6 109.4" fill="none" stroke="#fc8452"></polyline>
<polyline points="229.1 79.3 175.7 97.3 172.9 97.3" fill="none" stroke="#9a60b4"></polyline>
<polyline points="237.8 77.1 194.1 85.2 182.4 85.2" fill="none" stroke="#ea7ccc"></polyline>
<polyline points="244.2 76.2 212.1 73.1 197.1 73.1" fill="none" stroke="#5470c6"></polyline>
<polyline points="248.2 76 247.9 61 232.9 61" fill="none" stroke="#91cc75"></polyline>
<path d="M249.5 76A64 64 0 0 1 267.9555 201.2813L249.5 140Z" fill="rgb(84,112,198)"></path>
<path d="M267.9555 201.2813A64 64 0 0 1 199.6767 180.1701L249.5 140Z" fill="#91cc75"></path>
<path d="M199.6767 180.1701A64 64 0 0 1 185.5028 140.5984L249.5 140Z" fill="#fac858"></path>
<path d="M185.5028 140.5984A64 64 0 0 1 193.1176 109.7176L249.5 140Z" fill="rgb(238,102,102)"></path>
<path d="M193.1176 109.7176A64 64 0 0 1 202.5847 96.4689L249.5 140Z" fill="#73c0de"></path>
<path d="M202.5847 96.4689A64 64 0 0 1 212.9547 87.4601L249.5 140Z" fill="#3ba272"></path>
<path d="M212.9547 87.4601A64 64 0 0 1 224.2207 81.2041L249.5 140Z" fill="rgb(252,132,82)"></path>
<path d="M224.2207 81.2041A64 64 0 0 1 234.0944 77.8818L249.5 140Z" fill="#9a60b4"></path>
<path d="M234.0944 77.8818A64 64 0 0 1 241.4855 76.5038L249.5 140Z" fill="#ea7ccc"></path>
<path d="M241.4855 76.5038A64 64 0 0 1 246.8507 76.0549L249.5 140Z" fill="#5470c6"></path>
<path d="M246.8507 76.0549A64 64 0 0 1 249.5 76L249.5 140Z" fill="#91cc75"></path>
<text dominant-baseline="central" text-anchor="start" style="font-size:10px;font-family:sans-serif;" xml:space="preserve" transform="translate(347.6565 128.4866)" fill="#333" stroke="rgb(255,255,255)" stroke-width="2" paint-order="stroke" stroke-miterlimit="2">VOI GRA (JN.1+JN.1.*) firs...</text>
<text dominant-baseline="central" text-anchor="end" style="font-size:10px;font-family:sans-serif;" xml:space="preserve" transform="translate(206.1639 215.4747)" fill="#333" stroke="rgb(255,255,255)" stroke-width="2" paint-order="stroke" stroke-miterlimit="2">VOI GRA (EG.5+EG.5.*) firs...</text>
<text dominant-baseline="central" text-anchor="end" style="font-size:10px;font-family:sans-serif;" xml:space="preserve" transform="translate(159.9108 166.6391)" fill="#333" stroke="rgb(255,255,255)" stroke-width="2" paint-order="stroke" stroke-miterlimit="2">VOI GRA (BA.2.86+BA.2.86.*...</text>
<text dominant-baseline="central" text-anchor="end" style="font-size:10px;font-family:sans-serif;" xml:space="preserve" transform="translate(155.6977 145.7169)" fill="#333" stroke="rgb(255,255,255)" stroke-width="2" paint-order="stroke" stroke-miterlimit="2">VOI GRA (XBB.1.16+XBB.1.16...</text>
<text dominant-baseline="central" text-anchor="end" style="font-size:10px;font-family:sans-serif;" xml:space="preserve" transform="translate(155.7566 133.6169)" fill="#333" stroke="rgb(255,255,255)" stroke-width="2" paint-order="stroke" stroke-miterlimit="2">VUM GRA (XBB.2.3+XBB.2.3.*...</text>
<text dominant-baseline="central" text-anchor="end" style="font-size:10px;font-family:sans-serif;" xml:space="preserve" transform="translate(157.6779 121.5169)" fill="#333" stroke="rgb(255,255,255)" stroke-width="2" paint-order="stroke" stroke-miterlimit="2">VOI GRA (XBB.1.5+XBB.1.5.*...</text>
<text dominant-baseline="central" text-anchor="end" style="font-size:10px;font-family:sans-serif;" xml:space="preserve" transform="translate(161.6174 109.4169)" fill="#333" stroke="rgb(255,255,255)" stroke-width="2" paint-order="stroke" stroke-miterlimit="2">VUM GRA (XBB.1.9.1+XBB.1.9...</text>
<text dominant-baseline="central" text-anchor="end" style="font-size:10px;font-family:sans-serif;" xml:space="preserve" transform="translate(167.9325 97.3169)" fill="#333" stroke="rgb(255,255,255)" stroke-width="2" paint-order="stroke" stroke-miterlimit="2">Former VOC Omicron GRA (B....</text>
<text dominant-baseline="central" text-anchor="end" style="font-size:10px;font-family:sans-serif;" xml:space="preserve" transform="translate(177.4061 85.2169)" fill="#333" stroke="rgb(255,255,255)" stroke-width="2" paint-order="stroke" stroke-miterlimit="2">VUM GRA (XBB+XBB.* excludi...</text>
<text dominant-baseline="central" text-anchor="end" style="font-size:10px;font-family:sans-serif;" xml:space="preserve" transform="translate(192.1053 73.1169)" fill="#333" stroke="rgb(255,255,255)" stroke-width="2" paint-order="stroke" stroke-miterlimit="2">VUM GRA (XBB.1.9.2+XBB1.9....</text>
<text dominant-baseline="central" text-anchor="end" style="font-size:10px;font-family:sans-serif;" xml:space="preserve" transform="translate(227.8645 61.0169)" fill="#333" stroke="rgb(255,255,255)" stroke-width="2" paint-order="stroke" stroke-miterlimit="2">VUM GRA (CH.1.1+CH.1.1.*) ...</text>
<path d="M-5 -5l499 0l0 50l-499 0Z" transform="translate(5 245)" fill="rgb(0,0,0)" fill-opacity="0" stroke="#ccc" stroke-width="0"></path>
<g clip-path="url(#zr3-c0)">
<path d="M3.5 0L21.5 0A3.5 3.5 0 0 1 25 3.5L25 10.5A3.5 3.5 0 0 1 21.5 14L3.5 14A3.5 3.5 0 0 1 0 10.5L0 3.5A3.5 3.5 0 0 1 3.5 0" transform="translate(5 258)" fill="#5470c6"></path>
<text dominant-baseline="central" text-anchor="start" style="font-size:10px;font-family:sans-serif;" xml:space="preserve" x="30" y="2" transform="translate(5 258)" fill="#333">VOI GRA (JN.1+JN.1.*) first </text>
<text dominant-baseline="central" text-anchor="start" style="font-size:10px;font-family:sans-serif;" xml:space="preserve" x="30" y="12" transform="translate(5 258)" fill="#333">detected in Luxembourg/Iceland</text>
<path d="M3.5 0L21.5 0A3.5 3.5 0 0 1 25 3.5L25 10.5A3.5 3.5 0 0 1 21.5 14L3.5 14A3.5 3.5 0 0 1 0 10.5L0 3.5A3.5 3.5 0 0 1 3.5 0" transform="translate(187.3193 258)" fill="#91cc75"></path>
<text dominant-baseline="central" text-anchor="start" style="font-size:10px;font-family:sans-serif;" xml:space="preserve" x="30" y="2" transform="translate(187.3193 258)" fill="#333">VOI GRA (EG.5+EG.5.*) first </text>
<text dominant-baseline="central" text-anchor="start" style="font-size:10px;font-family:sans-serif;" xml:space="preserve" x="30" y="12" transform="translate(187.3193 258)" fill="#333">detected in Indonesia/France</text>
<path d="M3.5 0L21.5 0A3.5 3.5 0 0 1 25 3.5L25 10.5A3.5 3.5 0 0 1 21.5 14L3.5 14A3.5 3.5 0 0 1 0 10.5L0 3.5A3.5 3.5 0 0 1 3.5 0" transform="translate(357.6367 258)" fill="#fac858"></path>
<text dominant-baseline="central" text-anchor="start" style="font-size:10px;font-family:sans-serif;" xml:space="preserve" x="30" y="-3" transform="translate(357.6367 258)" fill="#333">VOI GRA (BA.2.86+BA.2.86.* </text>
<text dominant-baseline="central" text-anchor="start" style="font-size:10px;font-family:sans-serif;" xml:space="preserve" x="30" y="7" transform="translate(357.6367 258)" fill="#333">excluding JN.1, JN.1.*) first </text>
<text dominant-baseline="central" text-anchor="start" style="font-size:10px;font-family:sans-serif;" xml:space="preserve" x="30" y="17" transform="translate(357.6367 258)" fill="#333">detected in Denmark/Israel/USA</text>
<path d="M3.5 0L21.5 0A3.5 3.5 0 0 1 25 3.5L25 10.5A3.5 3.5 0 0 1 21.5 14L3.5 14A3.5 3.5 0 0 1 0 10.5L0 3.5A3.5 3.5 0 0 1 3.5 0" transform="translate(540.4785 258)" fill="#ee6666"></path>
<text dominant-baseline="central" text-anchor="start" style="font-size:10px;font-family:sans-serif;" xml:space="preserve" x="30" y="2" transform="translate(540.4785 258)" fill="#333">VOI GRA (XBB.1.16+XBB.1.16.*)</text>
<text dominant-baseline="central" text-anchor="start" style="font-size:10px;font-family:sans-serif;" xml:space="preserve" x="30" y="12" transform="translate(540.4785 258)" fill="#333"> first detected in India</text>
<path d="M3.5 0L21.5 0A3.5 3.5 0 0 1 25 3.5L25 10.5A3.5 3.5 0 0 1 21.5 14L3.5 14A3.5 3.5 0 0 1 0 10.5L0 3.5A3.5 3.5 0 0 1 3.5 0" transform="translate(728.0566 258)" fill="#73c0de"></path>
<text dominant-baseline="central" text-anchor="start" style="font-size:10px;font-family:sans-serif;" xml:space="preserve" x="30" y="2" transform="translate(728.0566 258)" fill="#333">VUM GRA (XBB.2.3+XBB.2.3.*) </text>
<text dominant-baseline="central" text-anchor="start" style="font-size:10px;font-family:sans-serif;" xml:space="preserve" x="30" y="12" transform="translate(728.0566 258)" fill="#333">first detected in India/USA</text>
<path d="M3.5 0L21.5 0A3.5 3.5 0 0 1 25 3.5L25 10.5A3.5 3.5 0 0 1 21.5 14L3.5 14A3.5 3.5 0 0 1 0 10.5L0 3.5A3.5 3.5 0 0 1 3.5 0" transform="translate(912.2852 258)" fill="#3ba272"></path>
<text dominant-baseline="central" text-anchor="start" style="font-size:10px;font-family:sans-serif;" xml:space="preserve" x="30" y="-3" transform="translate(912.2852 258)" fill="#333">VOI GRA (XBB.1.5+XBB.1.5.*) </text>
<text dominant-baseline="central" text-anchor="start" style="font-size:10px;font-family:sans-serif;" xml:space="preserve" x="30" y="7" transform="translate(912.2852 258)" fill="#333">first detected in Austria/India/</text>
<text dominant-baseline="central" text-anchor="start" style="font-size:10px;font-family:sans-serif;" x="30" y="17" transform="translate(912.2852 258)" fill="#333">Bangladesh</text>
<path d="M3.5 0L21.5 0A3.5 3.5 0 0 1 25 3.5L25 10.5A3.5 3.5 0 0 1 21.5 14L3.5 14A3.5 3.5 0 0 1 0 10.5L0 3.5A3.5 3.5 0 0 1 3.5 0" transform="translate(1091.5186 258)" fill="#fc8452"></path>
<text dominant-baseline="central" text-anchor="start" style="font-size:10px;font-family:sans-serif;" xml:space="preserve" x="30" y="-8" transform="translate(1091.5186 258)" fill="#333">VUM GRA </text>
<text dominant-baseline="central" text-anchor="start" style="font-size:10px;font-family:sans-serif;" xml:space="preserve" x="30" y="2" transform="translate(1091.5186 258)" fill="#333">(XBB.1.9.1+XBB.1.9.1.*) first </text>
<text dominant-baseline="central" text-anchor="start" style="font-size:10px;font-family:sans-serif;" xml:space="preserve" x="30" y="12" transform="translate(1091.5186 258)" fill="#333">detected in Indonesia/Israel/</text>
<text dominant-baseline="central" text-anchor="start" style="font-size:10px;font-family:sans-serif;" x="30" y="22" transform="translate(1091.5186 258)" fill="#333">Singapore</text>
<path d="M3.5 0L21.5 0A3.5 3.5 0 0 1 25 3.5L25 10.5A3.5 3.5 0 0 1 21.5 14L3.5 14A3.5 3.5 0 0 1 0 10.5L0 3.5A3.5 3.5 0 0 1 3.5 0" transform="translate(1262.4121 258)" fill="#9a60b4"></path>
<text dominant-baseline="central" text-anchor="start" style="font-size:10px;font-family:sans-serif;" xml:space="preserve" x="30" y="-8" transform="translate(1262.4121 258)" fill="#333">Former VOC Omicron GRA </text>
<text dominant-baseline="central" text-anchor="start" style="font-size:10px;font-family:sans-serif;" xml:space="preserve" x="30" y="2" transform="translate(1262.4121 258)" fill="#333">(B.1.1.529+BA.*) first detected in </text>
<text dominant-baseline="central" text-anchor="start" style="font-size:10px;font-family:sans-serif;" xml:space="preserve" x="30" y="12" transform="translate(1262.4121 258)" fill="#333">Botswana/Hong Kong/South </text>
<text dominant-baseline="central" text-anchor="start" style="font-size:10px;font-family:sans-serif;" x="30" y="22" transform="translate(1262.4121 258)" fill="#333">Africa</text>
<path d="M3.5 0L21.5 0A3.5 3.5 0 0 1 25 3.5L25 10.5A3.5 3.5 0 0 1 21.5 14L3.5 14A3.5 3.5 0 0 1 0 10.5L0 3.5A3.5 3.5 0 0 1 3.5 0" transform="translate(1451.1035 258)" fill="#ea7ccc"></path>
<text dominant-baseline="central" text-anchor="start" style="font-size:10px;font-family:sans-serif;" xml:space="preserve" x="30" y="-8" transform="translate(1451.1035 258)" fill="#333">VUM GRA (XBB+XBB.* </text>
<text dominant-baseline="central" text-anchor="start" style="font-size:10px;font-family:sans-serif;" xml:space="preserve" x="30" y="2" transform="translate(1451.1035 258)" fill="#333">excluding XBB.1.5, XBB.1.16, </text>
<text dominant-baseline="central" text-anchor="start" style="font-size:10px;font-family:sans-serif;" xml:space="preserve" x="30" y="12" transform="translate(1451.1035 258)" fill="#333">XBB.1.9.1, XBB.1.9.2, XBB.2.3) </text>
<text dominant-baseline="central" text-anchor="start" style="font-size:10px;font-family:sans-serif;" xml:space="preserve" x="30" y="22" transform="translate(1451.1035 258)" fill="#333">first detected in India</text>
<path d="M3.5 0L21.5 0A3.5 3.5 0 0 1 25 3.5L25 10.5A3.5 3.5 0 0 1 21.5 14L3.5 14A3.5 3.5 0 0 1 0 10.5L0 3.5A3.5 3.5 0 0 1 3.5 0" transform="translate(1635.0732 258)" fill="#5470c6"></path>
<text dominant-baseline="central" text-anchor="start" style="font-size:10px;font-family:sans-serif;" xml:space="preserve" x="30" y="-3" transform="translate(1635.0732 258)" fill="#333">VUM GRA </text>
<text dominant-baseline="central" text-anchor="start" style="font-size:10px;font-family:sans-serif;" xml:space="preserve" x="30" y="7" transform="translate(1635.0732 258)" fill="#333">(XBB.1.9.2+XBB1.9.2.*) first </text>
<text dominant-baseline="central" text-anchor="start" style="font-size:10px;font-family:sans-serif;" xml:space="preserve" x="30" y="17" transform="translate(1635.0732 258)" fill="#333">detected in Indonesia/Egypt</text>
<path d="M3.5 0L21.5 0A3.5 3.5 0 0 1 25 3.5L25 10.5A3.5 3.5 0 0 1 21.5 14L3.5 14A3.5 3.5 0 0 1 0 10.5L0 3.5A3.5 3.5 0 0 1 3.5 0" transform="translate(1803.1885 258)" fill="#91cc75"></path>
<text dominant-baseline="central" text-anchor="start" style="font-size:10px;font-family:sans-serif;" xml:space="preserve" x="30" y="2" transform="translate(1803.1885 258)" fill="#333">VUM GRA (CH.1.1+CH.1.1.*) first</text>
<text dominant-baseline="central" text-anchor="start" style="font-size:10px;font-family:sans-serif;" xml:space="preserve" x="30" y="12" transform="translate(1803.1885 258)" fill="#333"> detected in Austria</text>
</g>
<path d="M-4.5 0L4.5 -7.5L4.5 7.5Z" transform="translate(443.166 265)" fill="#aaa"></path>
<text dominant-baseline="central" text-anchor="middle" style="font: normal normal 12px sans-serif" transform="translate(466.333 265)" fill="#333">1/6</text>
<path d="M4.5 0L-4.5 -7.5L-4.5 7.5Z" transform="translate(489.5 265)" fill="#2f4554"></path>
<path d="M-5 -5l10 0l0 10l-10 0Z" transform="translate(249.5 5)" fill="rgb(0,0,0)" fill-opacity="0" stroke="#ccc" stroke-width="0"></path>
<defs >
<clipPath id="zr3-c0">
<path d="M0 0l423.666 0l0 40l-423.666 0Z" transform="translate(5 245)" fill="#000"></path>
</clipPath>
</defs>
</svg>